<?xml version="1.0" encoding="utf-8"?>
<!-- Generator: Adobe Illustrator 16.0.0, SVG Export Plug-In . SVG Version: 6.00 Build 0)  -->
<!DOCTYPE svg PUBLIC "-//W3C//DTD SVG 1.1//EN" "http://www.w3.org/Graphics/SVG/1.1/DTD/svg11.dtd">
<svg version="1.1" id="Capa_1" xmlns="http://www.w3.org/2000/svg" xmlns:xlink="http://www.w3.org/1999/xlink" x="0px" y="0px"
	 width="520px" height="370px" viewBox="0 0 520 370" enable-background="new 0 0 520 370" xml:space="preserve">
<rect x="-25" y="-56" display="none" fill="#724948" stroke="#000000" stroke-miterlimit="10" width="581" height="461.644"/>
<path fill-rule="evenodd" clip-rule="evenodd" fill="#FFFFFF" d="M269.346,131.779c-47.443,0.709-93.305,6.513-136.824,23.334
	c-19.35,7.481-38.454,17.182-55.313,29.183c-31.397,22.351-33.774,54.74-8.684,84.121c23.046,26.985,52.828,43.818,85.785,54.904
	c46.146,15.519,93.53,25.359,142.042,13.896c79.583-18.81,123.205-77.534,119.547-161.673c-1.062-24.41-4.748-49.831-13.206-72.562
	c-18.898-50.758-59.36-77.58-111.19-88.663c-3.395-0.726-6.729-1.735-10.238-5.858c2.641-0.876,5.404-2.772,7.906-2.478
	c63.321,7.465,122.474,25.591,170.04,70.569c73.634,69.638,66.902,165.774-15.982,229.052
	c-46.108,35.199-99.122,51.77-156.55,56.373c-67.021,5.373-130.247-6.441-188.5-40.554c-38.557-22.579-69.499-52.912-83.195-96.564
	C-3.54,165.817,16.397,116.698,59.48,76.047c42.044-39.668,93.842-59.475,150.377-67.294c19.237-2.66,38.803-2.949,59.489-4.411
	C269.346,47.683,269.346,88.955,269.346,131.779z"/>
<path fill-rule="evenodd" clip-rule="evenodd" fill="#FFFFFF" d="M269.436,328.721c-31.859-7.345-60.597-18.37-83.904-40.22
	c-33.563-31.466-33.91-75.704-0.608-107.148c23.459-22.15,52.638-33.605,84.512-42.62
	C269.436,202.261,269.436,264.543,269.436,328.721z"/>
</svg>
